<?xml version="1.0" encoding="iso-8859-1"?>
<svg fill="#000000" height="800px" width="800px" version="1.1" id="Capa_1" viewBox="0 0 317.001 317.001" xmlns="http://www.w3.org/2000/svg">
  <path d="M270.825,70.55L212.17,3.66C210.13,1.334,207.187,0,204.093,0H55.941C49.076,0,43.51,5.566,43.51,12.431V304.57
	c0,6.866,5.566,12.431,12.431,12.431h205.118c6.866,0,12.432-5.566,12.432-12.432V77.633
	C273.491,75.027,272.544,72.51,270.825,70.55z M55.941,305.073V12.432H199.94v63.601c0,3.431,2.78,6.216,6.216,6.216h54.903
	l0.006,222.824H55.941z" style="fill: rgb(255, 255, 255);"></path>
  <polygon fill="#FFC107" points="216.178 141.198 161.961 141.198 198.875 43.146 135.43 43.146 100.823 164.269 150.426 164.269 123.894 273.855" style=""></polygon>
</svg>