<?xml version="1.0" encoding="utf-8"?><!-- Uploaded to: SVG Repo, www.svgrepo.com, Generator: SVG Repo Mixer Tools -->
<svg width="800px" height="800px" viewBox="0 0 32 32" xmlns="http://www.w3.org/2000/svg">
  <path d="M5.114,27.944V18.427H2.66a.668.668,0,0,1-.47-1.134L15.41,3.748h0a.819.819,0,0,1,1.166-.008l.007.007,6.9,7.037v-1.3h0a.553.553,0,0,1,.55-.556h2.292a.553.553,0,0,1,.549.556v4.78L29.812,17.3h0a.671.671,0,0,1-.01.942.657.657,0,0,1-.462.19H26.876v9.517a.553.553,0,0,1-.549.556H5.664A.553.553,0,0,1,5.114,27.944Z" style="fill:#3dbcf3;fill-rule:evenodd"></path>
  <polygon fill="#FFC107" points="23.511 13.747 16.451 13.747 21.258 0.979 12.996 0.979 8.489 16.751 14.948 16.751 11.494 31.022" style=""></polygon>
</svg>